<mxfile host="app.diagrams.net" modified="2023-12-05T08:33:25.401Z" agent="Mozilla/5.0 (Windows NT 10.0; Win64; x64) AppleWebKit/537.36 (KHTML, like Gecko) Chrome/119.0.0.0 Safari/537.36 Edg/119.0.0.0" etag="lBnE1kVKTC6hIzIUCgSz" version="22.1.5" type="device">
  <diagram id="NAFpqwOAlM9_iM2DYpYY" name="Page-1">
    <mxGraphModel dx="1940" dy="1691" grid="1" gridSize="10" guides="1" tooltips="1" connect="1" arrows="1" fold="1" page="1" pageScale="1" pageWidth="850" pageHeight="1100" math="0" shadow="0">
      <root>
        <mxCell id="0" />
        <mxCell id="1" parent="0" />
        <mxCell id="CKC-zvaueP3wiEX_PYZd-1" value="" style="line;strokeWidth=2;direction=south;html=1;fillColor=#f5f5f5;fontColor=#333333;strokeColor=#666666;" vertex="1" parent="1">
          <mxGeometry x="400" y="-50" width="10" height="550" as="geometry" />
        </mxCell>
        <mxCell id="CKC-zvaueP3wiEX_PYZd-2" value="Khách hàng" style="shape=umlLifeline;perimeter=lifelinePerimeter;whiteSpace=wrap;html=1;container=1;dropTarget=0;collapsible=0;recursiveResize=0;outlineConnect=0;portConstraint=eastwest;newEdgeStyle={&quot;curved&quot;:0,&quot;rounded&quot;:0};" vertex="1" parent="1">
          <mxGeometry x="-130" y="50" width="100" height="750" as="geometry" />
        </mxCell>
        <mxCell id="CKC-zvaueP3wiEX_PYZd-3" value="" style="html=1;points=[[0,0,0,0,5],[0,1,0,0,-5],[1,0,0,0,5],[1,1,0,0,-5]];perimeter=orthogonalPerimeter;outlineConnect=0;targetShapes=umlLifeline;portConstraint=eastwest;newEdgeStyle={&quot;curved&quot;:0,&quot;rounded&quot;:0};" vertex="1" parent="CKC-zvaueP3wiEX_PYZd-2">
          <mxGeometry x="45" y="80" width="10" height="190" as="geometry" />
        </mxCell>
        <mxCell id="CKC-zvaueP3wiEX_PYZd-52" value="" style="html=1;points=[[0,0,0,0,5],[0,1,0,0,-5],[1,0,0,0,5],[1,1,0,0,-5]];perimeter=orthogonalPerimeter;outlineConnect=0;targetShapes=umlLifeline;portConstraint=eastwest;newEdgeStyle={&quot;curved&quot;:0,&quot;rounded&quot;:0};" vertex="1" parent="CKC-zvaueP3wiEX_PYZd-2">
          <mxGeometry x="45" y="540" width="10" height="20" as="geometry" />
        </mxCell>
        <mxCell id="CKC-zvaueP3wiEX_PYZd-4" value="Form" style="shape=umlLifeline;perimeter=lifelinePerimeter;whiteSpace=wrap;html=1;container=1;dropTarget=0;collapsible=0;recursiveResize=0;outlineConnect=0;portConstraint=eastwest;newEdgeStyle={&quot;curved&quot;:0,&quot;rounded&quot;:0};" vertex="1" parent="1">
          <mxGeometry x="70" y="50" width="100" height="750" as="geometry" />
        </mxCell>
        <mxCell id="CKC-zvaueP3wiEX_PYZd-5" value="" style="html=1;points=[[0,0,0,0,5],[0,1,0,0,-5],[1,0,0,0,5],[1,1,0,0,-5]];perimeter=orthogonalPerimeter;outlineConnect=0;targetShapes=umlLifeline;portConstraint=eastwest;newEdgeStyle={&quot;curved&quot;:0,&quot;rounded&quot;:0};" vertex="1" parent="CKC-zvaueP3wiEX_PYZd-4">
          <mxGeometry x="45" y="80" width="10" height="30" as="geometry" />
        </mxCell>
        <mxCell id="CKC-zvaueP3wiEX_PYZd-7" value="" style="html=1;points=[[0,0,0,0,5],[0,1,0,0,-5],[1,0,0,0,5],[1,1,0,0,-5]];perimeter=orthogonalPerimeter;outlineConnect=0;targetShapes=umlLifeline;portConstraint=eastwest;newEdgeStyle={&quot;curved&quot;:0,&quot;rounded&quot;:0};" vertex="1" parent="CKC-zvaueP3wiEX_PYZd-4">
          <mxGeometry x="45" y="270" width="10" height="20" as="geometry" />
        </mxCell>
        <mxCell id="CKC-zvaueP3wiEX_PYZd-8" value="" style="html=1;points=[[0,0,0,0,5],[0,1,0,0,-5],[1,0,0,0,5],[1,1,0,0,-5]];perimeter=orthogonalPerimeter;outlineConnect=0;targetShapes=umlLifeline;portConstraint=eastwest;newEdgeStyle={&quot;curved&quot;:0,&quot;rounded&quot;:0};" vertex="1" parent="CKC-zvaueP3wiEX_PYZd-4">
          <mxGeometry x="45" y="360" width="10" height="20" as="geometry" />
        </mxCell>
        <mxCell id="CKC-zvaueP3wiEX_PYZd-9" value="" style="html=1;points=[[0,0,0,0,5],[0,1,0,0,-5],[1,0,0,0,5],[1,1,0,0,-5]];perimeter=orthogonalPerimeter;outlineConnect=0;targetShapes=umlLifeline;portConstraint=eastwest;newEdgeStyle={&quot;curved&quot;:0,&quot;rounded&quot;:0};" vertex="1" parent="CKC-zvaueP3wiEX_PYZd-4">
          <mxGeometry x="45" y="450" width="10" height="60" as="geometry" />
        </mxCell>
        <mxCell id="CKC-zvaueP3wiEX_PYZd-6" value="" style="html=1;points=[[0,0,0,0,5],[0,1,0,0,-5],[1,0,0,0,5],[1,1,0,0,-5]];perimeter=orthogonalPerimeter;outlineConnect=0;targetShapes=umlLifeline;portConstraint=eastwest;newEdgeStyle={&quot;curved&quot;:0,&quot;rounded&quot;:0};" vertex="1" parent="CKC-zvaueP3wiEX_PYZd-4">
          <mxGeometry x="45" y="140" width="10" height="100" as="geometry" />
        </mxCell>
        <mxCell id="CKC-zvaueP3wiEX_PYZd-17" value="3. Nhập thông tin" style="html=1;verticalAlign=bottom;endArrow=block;curved=0;rounded=0;" edge="1" parent="CKC-zvaueP3wiEX_PYZd-4">
          <mxGeometry width="80" relative="1" as="geometry">
            <mxPoint x="-145" y="140" as="sourcePoint" />
            <mxPoint x="50" y="140" as="targetPoint" />
          </mxGeometry>
        </mxCell>
        <mxCell id="CKC-zvaueP3wiEX_PYZd-55" value="" style="html=1;points=[[0,0,0,0,5],[0,1,0,0,-5],[1,0,0,0,5],[1,1,0,0,-5]];perimeter=orthogonalPerimeter;outlineConnect=0;targetShapes=umlLifeline;portConstraint=eastwest;newEdgeStyle={&quot;curved&quot;:0,&quot;rounded&quot;:0};" vertex="1" parent="CKC-zvaueP3wiEX_PYZd-4">
          <mxGeometry x="45" y="540" width="10" height="20" as="geometry" />
        </mxCell>
        <mxCell id="CKC-zvaueP3wiEX_PYZd-70" value="" style="html=1;points=[[0,0,0,0,5],[0,1,0,0,-5],[1,0,0,0,5],[1,1,0,0,-5]];perimeter=orthogonalPerimeter;outlineConnect=0;targetShapes=umlLifeline;portConstraint=eastwest;newEdgeStyle={&quot;curved&quot;:0,&quot;rounded&quot;:0};" vertex="1" parent="CKC-zvaueP3wiEX_PYZd-4">
          <mxGeometry x="45" y="690" width="10" height="20" as="geometry" />
        </mxCell>
        <mxCell id="CKC-zvaueP3wiEX_PYZd-10" value="Controller" style="shape=umlLifeline;perimeter=lifelinePerimeter;whiteSpace=wrap;html=1;container=1;dropTarget=0;collapsible=0;recursiveResize=0;outlineConnect=0;portConstraint=eastwest;newEdgeStyle={&quot;curved&quot;:0,&quot;rounded&quot;:0};" vertex="1" parent="1">
          <mxGeometry x="450" y="50" width="100" height="750" as="geometry" />
        </mxCell>
        <mxCell id="CKC-zvaueP3wiEX_PYZd-11" value="" style="html=1;points=[[0,0,0,0,5],[0,1,0,0,-5],[1,0,0,0,5],[1,1,0,0,-5]];perimeter=orthogonalPerimeter;outlineConnect=0;targetShapes=umlLifeline;portConstraint=eastwest;newEdgeStyle={&quot;curved&quot;:0,&quot;rounded&quot;:0};" vertex="1" parent="CKC-zvaueP3wiEX_PYZd-10">
          <mxGeometry x="45" y="310" width="10" height="190" as="geometry" />
        </mxCell>
        <mxCell id="CKC-zvaueP3wiEX_PYZd-12" value="9. Kiểm tra định dạng" style="html=1;align=left;spacingLeft=2;endArrow=block;rounded=0;edgeStyle=orthogonalEdgeStyle;curved=0;rounded=0;exitX=0.5;exitY=0;exitDx=0;exitDy=0;exitPerimeter=0;" edge="1" parent="CKC-zvaueP3wiEX_PYZd-10" source="CKC-zvaueP3wiEX_PYZd-11" target="CKC-zvaueP3wiEX_PYZd-13">
          <mxGeometry x="0.0026" relative="1" as="geometry">
            <mxPoint x="60" y="310" as="sourcePoint" />
            <Array as="points">
              <mxPoint x="90" y="310" />
              <mxPoint x="90" y="330" />
            </Array>
            <mxPoint as="offset" />
          </mxGeometry>
        </mxCell>
        <mxCell id="CKC-zvaueP3wiEX_PYZd-13" value="" style="html=1;points=[[0,0,0,0,5],[0,1,0,0,-5],[1,0,0,0,5],[1,1,0,0,-5]];perimeter=orthogonalPerimeter;outlineConnect=0;targetShapes=umlLifeline;portConstraint=eastwest;newEdgeStyle={&quot;curved&quot;:0,&quot;rounded&quot;:0};" vertex="1" parent="CKC-zvaueP3wiEX_PYZd-10">
          <mxGeometry x="55" y="320" width="10" height="40" as="geometry" />
        </mxCell>
        <mxCell id="CKC-zvaueP3wiEX_PYZd-14" value="" style="html=1;points=[[0,0,0,0,5],[0,1,0,0,-5],[1,0,0,0,5],[1,1,0,0,-5]];perimeter=orthogonalPerimeter;outlineConnect=0;targetShapes=umlLifeline;portConstraint=eastwest;newEdgeStyle={&quot;curved&quot;:0,&quot;rounded&quot;:0};" vertex="1" parent="CKC-zvaueP3wiEX_PYZd-10">
          <mxGeometry x="55" y="419.99" width="10" height="50.01" as="geometry" />
        </mxCell>
        <mxCell id="CKC-zvaueP3wiEX_PYZd-15" value="11. Kiểm tra" style="html=1;align=left;spacingLeft=2;endArrow=block;rounded=0;edgeStyle=orthogonalEdgeStyle;curved=0;rounded=0;" edge="1" parent="CKC-zvaueP3wiEX_PYZd-10" target="CKC-zvaueP3wiEX_PYZd-14">
          <mxGeometry relative="1" as="geometry">
            <mxPoint x="55" y="410.00176470588235" as="sourcePoint" />
            <Array as="points">
              <mxPoint x="90" y="410" />
              <mxPoint x="90" y="430" />
            </Array>
          </mxGeometry>
        </mxCell>
        <mxCell id="CKC-zvaueP3wiEX_PYZd-59" value="" style="html=1;points=[[0,0,0,0,5],[0,1,0,0,-5],[1,0,0,0,5],[1,1,0,0,-5]];perimeter=orthogonalPerimeter;outlineConnect=0;targetShapes=umlLifeline;portConstraint=eastwest;newEdgeStyle={&quot;curved&quot;:0,&quot;rounded&quot;:0};" vertex="1" parent="CKC-zvaueP3wiEX_PYZd-10">
          <mxGeometry x="45" y="580" width="10" height="140" as="geometry" />
        </mxCell>
        <mxCell id="CKC-zvaueP3wiEX_PYZd-65" value="" style="html=1;points=[[0,0,0,0,5],[0,1,0,0,-5],[1,0,0,0,5],[1,1,0,0,-5]];perimeter=orthogonalPerimeter;outlineConnect=0;targetShapes=umlLifeline;portConstraint=eastwest;newEdgeStyle={&quot;curved&quot;:0,&quot;rounded&quot;:0};" vertex="1" parent="CKC-zvaueP3wiEX_PYZd-10">
          <mxGeometry x="55" y="649.99" width="10" height="50.01" as="geometry" />
        </mxCell>
        <mxCell id="CKC-zvaueP3wiEX_PYZd-66" value="17. Kiểm tra" style="html=1;align=left;spacingLeft=2;endArrow=block;rounded=0;edgeStyle=orthogonalEdgeStyle;curved=0;rounded=0;" edge="1" target="CKC-zvaueP3wiEX_PYZd-65" parent="CKC-zvaueP3wiEX_PYZd-10">
          <mxGeometry relative="1" as="geometry">
            <mxPoint x="55" y="640.0017647058824" as="sourcePoint" />
            <Array as="points">
              <mxPoint x="90" y="640" />
              <mxPoint x="90" y="660" />
            </Array>
          </mxGeometry>
        </mxCell>
        <mxCell id="CKC-zvaueP3wiEX_PYZd-16" value="2. Yếu cầu nhập thông tin đăng ký" style="html=1;verticalAlign=bottom;endArrow=open;dashed=1;endSize=8;curved=0;rounded=0;" edge="1" parent="1">
          <mxGeometry relative="1" as="geometry">
            <mxPoint x="119.49999999999977" y="160" as="sourcePoint" />
            <mxPoint x="-75" y="160" as="targetPoint" />
            <Array as="points">
              <mxPoint y="160" />
            </Array>
          </mxGeometry>
        </mxCell>
        <mxCell id="CKC-zvaueP3wiEX_PYZd-18" value="1. Gửi yêu cầu đăng ký" style="html=1;verticalAlign=bottom;endArrow=block;curved=0;rounded=0;" edge="1" parent="1">
          <mxGeometry width="80" relative="1" as="geometry">
            <mxPoint x="-75" y="130" as="sourcePoint" />
            <mxPoint x="120" y="130" as="targetPoint" />
          </mxGeometry>
        </mxCell>
        <mxCell id="CKC-zvaueP3wiEX_PYZd-19" value="8. POST: Gửi yêu cầu đăng ký" style="html=1;verticalAlign=bottom;endArrow=block;curved=0;rounded=0;" edge="1" parent="1">
          <mxGeometry x="-0.0014" width="80" relative="1" as="geometry">
            <mxPoint x="290" y="360" as="sourcePoint" />
            <mxPoint x="495" y="360" as="targetPoint" />
            <mxPoint as="offset" />
          </mxGeometry>
        </mxCell>
        <mxCell id="CKC-zvaueP3wiEX_PYZd-20" value="9.1. Sai: status code: 400" style="html=1;verticalAlign=bottom;endArrow=open;dashed=1;endSize=8;curved=0;rounded=0;" edge="1" parent="1" target="CKC-zvaueP3wiEX_PYZd-26">
          <mxGeometry relative="1" as="geometry">
            <mxPoint x="500" y="390" as="sourcePoint" />
            <mxPoint x="300" y="390" as="targetPoint" />
            <Array as="points">
              <mxPoint x="375" y="390" />
            </Array>
          </mxGeometry>
        </mxCell>
        <mxCell id="CKC-zvaueP3wiEX_PYZd-21" value="Database" style="shape=umlLifeline;perimeter=lifelinePerimeter;whiteSpace=wrap;html=1;container=1;dropTarget=0;collapsible=0;recursiveResize=0;outlineConnect=0;portConstraint=eastwest;newEdgeStyle={&quot;curved&quot;:0,&quot;rounded&quot;:0};" vertex="1" parent="1">
          <mxGeometry x="650" y="50" width="100" height="750" as="geometry" />
        </mxCell>
        <mxCell id="CKC-zvaueP3wiEX_PYZd-22" value="" style="html=1;points=[[0,0,0,0,5],[0,1,0,0,-5],[1,0,0,0,5],[1,1,0,0,-5]];perimeter=orthogonalPerimeter;outlineConnect=0;targetShapes=umlLifeline;portConstraint=eastwest;newEdgeStyle={&quot;curved&quot;:0,&quot;rounded&quot;:0};" vertex="1" parent="CKC-zvaueP3wiEX_PYZd-21">
          <mxGeometry x="45" y="360" width="10" height="40" as="geometry" />
        </mxCell>
        <mxCell id="CKC-zvaueP3wiEX_PYZd-61" value="" style="html=1;points=[[0,0,0,0,5],[0,1,0,0,-5],[1,0,0,0,5],[1,1,0,0,-5]];perimeter=orthogonalPerimeter;outlineConnect=0;targetShapes=umlLifeline;portConstraint=eastwest;newEdgeStyle={&quot;curved&quot;:0,&quot;rounded&quot;:0};" vertex="1" parent="CKC-zvaueP3wiEX_PYZd-21">
          <mxGeometry x="45" y="600" width="10" height="40" as="geometry" />
        </mxCell>
        <mxCell id="CKC-zvaueP3wiEX_PYZd-23" value="" style="line;strokeWidth=2;html=1;fillColor=#f5f5f5;fontColor=#333333;strokeColor=#666666;" vertex="1" parent="1">
          <mxGeometry x="-150" y="10" width="930" height="10" as="geometry" />
        </mxCell>
        <mxCell id="CKC-zvaueP3wiEX_PYZd-24" value="Server" style="text;html=1;align=center;verticalAlign=middle;resizable=0;points=[];autosize=1;strokeColor=none;fillColor=none;" vertex="1" parent="1">
          <mxGeometry x="580" y="-20" width="60" height="30" as="geometry" />
        </mxCell>
        <mxCell id="CKC-zvaueP3wiEX_PYZd-25" value="Client" style="text;html=1;align=center;verticalAlign=middle;resizable=0;points=[];autosize=1;strokeColor=none;fillColor=none;" vertex="1" parent="1">
          <mxGeometry x="155" y="-20" width="50" height="30" as="geometry" />
        </mxCell>
        <mxCell id="CKC-zvaueP3wiEX_PYZd-26" value="ViewModel" style="shape=umlLifeline;perimeter=lifelinePerimeter;whiteSpace=wrap;html=1;container=1;dropTarget=0;collapsible=0;recursiveResize=0;outlineConnect=0;portConstraint=eastwest;newEdgeStyle={&quot;curved&quot;:0,&quot;rounded&quot;:0};" vertex="1" parent="1">
          <mxGeometry x="240" y="50" width="100" height="750" as="geometry" />
        </mxCell>
        <mxCell id="CKC-zvaueP3wiEX_PYZd-27" value="" style="html=1;points=[[0,0,0,0,5],[0,1,0,0,-5],[1,0,0,0,5],[1,1,0,0,-5]];perimeter=orthogonalPerimeter;outlineConnect=0;targetShapes=umlLifeline;portConstraint=eastwest;newEdgeStyle={&quot;curved&quot;:0,&quot;rounded&quot;:0};" vertex="1" parent="CKC-zvaueP3wiEX_PYZd-26">
          <mxGeometry x="45" y="150" width="10" height="90" as="geometry" />
        </mxCell>
        <mxCell id="CKC-zvaueP3wiEX_PYZd-28" value="5. Kiểm tra định dạng" style="html=1;align=left;spacingLeft=2;endArrow=block;rounded=0;edgeStyle=orthogonalEdgeStyle;curved=0;rounded=0;" edge="1" parent="CKC-zvaueP3wiEX_PYZd-26" target="CKC-zvaueP3wiEX_PYZd-29">
          <mxGeometry relative="1" as="geometry">
            <mxPoint x="55" y="150" as="sourcePoint" />
            <Array as="points">
              <mxPoint x="85" y="180" />
            </Array>
          </mxGeometry>
        </mxCell>
        <mxCell id="CKC-zvaueP3wiEX_PYZd-29" value="" style="html=1;points=[[0,0,0,0,5],[0,1,0,0,-5],[1,0,0,0,5],[1,1,0,0,-5]];perimeter=orthogonalPerimeter;outlineConnect=0;targetShapes=umlLifeline;portConstraint=eastwest;newEdgeStyle={&quot;curved&quot;:0,&quot;rounded&quot;:0};" vertex="1" parent="CKC-zvaueP3wiEX_PYZd-26">
          <mxGeometry x="50" y="170" width="10" height="50" as="geometry" />
        </mxCell>
        <mxCell id="CKC-zvaueP3wiEX_PYZd-30" value="" style="html=1;points=[[0,0,0,0,5],[0,1,0,0,-5],[1,0,0,0,5],[1,1,0,0,-5]];perimeter=orthogonalPerimeter;outlineConnect=0;targetShapes=umlLifeline;portConstraint=eastwest;newEdgeStyle={&quot;curved&quot;:0,&quot;rounded&quot;:0};" vertex="1" parent="CKC-zvaueP3wiEX_PYZd-26">
          <mxGeometry x="45" y="290" width="10" height="20" as="geometry" />
        </mxCell>
        <mxCell id="CKC-zvaueP3wiEX_PYZd-31" value="" style="html=1;points=[[0,0,0,0,5],[0,1,0,0,-5],[1,0,0,0,5],[1,1,0,0,-5]];perimeter=orthogonalPerimeter;outlineConnect=0;targetShapes=umlLifeline;portConstraint=eastwest;newEdgeStyle={&quot;curved&quot;:0,&quot;rounded&quot;:0};" vertex="1" parent="CKC-zvaueP3wiEX_PYZd-26">
          <mxGeometry x="45" y="340" width="10" height="20" as="geometry" />
        </mxCell>
        <mxCell id="CKC-zvaueP3wiEX_PYZd-32" value="" style="html=1;points=[[0,0,0,0,5],[0,1,0,0,-5],[1,0,0,0,5],[1,1,0,0,-5]];perimeter=orthogonalPerimeter;outlineConnect=0;targetShapes=umlLifeline;portConstraint=eastwest;newEdgeStyle={&quot;curved&quot;:0,&quot;rounded&quot;:0};" vertex="1" parent="CKC-zvaueP3wiEX_PYZd-26">
          <mxGeometry x="45" y="440" width="10" height="70" as="geometry" />
        </mxCell>
        <mxCell id="CKC-zvaueP3wiEX_PYZd-58" value="" style="html=1;points=[[0,0,0,0,5],[0,1,0,0,-5],[1,0,0,0,5],[1,1,0,0,-5]];perimeter=orthogonalPerimeter;outlineConnect=0;targetShapes=umlLifeline;portConstraint=eastwest;newEdgeStyle={&quot;curved&quot;:0,&quot;rounded&quot;:0};" vertex="1" parent="CKC-zvaueP3wiEX_PYZd-26">
          <mxGeometry x="45" y="560" width="10" height="20" as="geometry" />
        </mxCell>
        <mxCell id="CKC-zvaueP3wiEX_PYZd-69" value="" style="html=1;points=[[0,0,0,0,5],[0,1,0,0,-5],[1,0,0,0,5],[1,1,0,0,-5]];perimeter=orthogonalPerimeter;outlineConnect=0;targetShapes=umlLifeline;portConstraint=eastwest;newEdgeStyle={&quot;curved&quot;:0,&quot;rounded&quot;:0};" vertex="1" parent="CKC-zvaueP3wiEX_PYZd-26">
          <mxGeometry x="45" y="670" width="10" height="70" as="geometry" />
        </mxCell>
        <mxCell id="CKC-zvaueP3wiEX_PYZd-33" value="4.Gửi thông tin đăng ký" style="html=1;verticalAlign=bottom;endArrow=block;curved=0;rounded=0;" edge="1" parent="1">
          <mxGeometry x="0.0625" y="5" width="80" relative="1" as="geometry">
            <mxPoint x="125" y="200.0000000000001" as="sourcePoint" />
            <mxPoint x="285" y="200" as="targetPoint" />
            <mxPoint as="offset" />
          </mxGeometry>
        </mxCell>
        <mxCell id="CKC-zvaueP3wiEX_PYZd-34" value="" style="line;strokeWidth=2;direction=south;html=1;fillColor=#f5f5f5;fontColor=#333333;strokeColor=#666666;" vertex="1" parent="1">
          <mxGeometry x="400" y="-10" width="10" height="820" as="geometry" />
        </mxCell>
        <mxCell id="CKC-zvaueP3wiEX_PYZd-35" value="11.2.1. Hiển thị thông báo&lt;br&gt;thành công, kiểm tra mail để&lt;br&gt;xác nhận hoàn tất đăng ký" style="html=1;verticalAlign=bottom;endArrow=open;dashed=1;endSize=8;curved=0;rounded=0;" edge="1" parent="1">
          <mxGeometry x="0.0523" relative="1" as="geometry">
            <mxPoint x="289.5" y="560" as="sourcePoint" />
            <mxPoint x="119.38888888888914" y="560" as="targetPoint" />
            <Array as="points">
              <mxPoint x="147.5" y="560" />
            </Array>
            <mxPoint x="1" as="offset" />
          </mxGeometry>
        </mxCell>
        <mxCell id="CKC-zvaueP3wiEX_PYZd-36" value="5.1. Sai: hiển thị thông báo lỗi" style="html=1;verticalAlign=bottom;endArrow=open;dashed=1;endSize=8;curved=0;rounded=0;" edge="1" parent="1">
          <mxGeometry relative="1" as="geometry">
            <mxPoint x="290" y="240" as="sourcePoint" />
            <mxPoint x="120" y="240" as="targetPoint" />
            <Array as="points" />
          </mxGeometry>
        </mxCell>
        <mxCell id="CKC-zvaueP3wiEX_PYZd-37" value="5.2. Đúng: Chấp nhận nhấn&lt;br&gt;đăng ký" style="html=1;verticalAlign=bottom;endArrow=open;dashed=1;endSize=8;curved=0;rounded=0;" edge="1" parent="1">
          <mxGeometry relative="1" as="geometry">
            <mxPoint x="290" y="270" as="sourcePoint" />
            <mxPoint x="120" y="270" as="targetPoint" />
            <Array as="points" />
          </mxGeometry>
        </mxCell>
        <mxCell id="CKC-zvaueP3wiEX_PYZd-38" value="5.2.1. Chấp nhận nhấn đăng ký,&lt;br&gt;không hiện lỗi" style="html=1;verticalAlign=bottom;endArrow=open;dashed=1;endSize=8;curved=0;rounded=0;" edge="1" parent="1">
          <mxGeometry relative="1" as="geometry">
            <mxPoint x="114" y="290" as="sourcePoint" />
            <mxPoint x="-80" y="290" as="targetPoint" />
            <Array as="points">
              <mxPoint x="-5" y="290" />
            </Array>
          </mxGeometry>
        </mxCell>
        <mxCell id="CKC-zvaueP3wiEX_PYZd-39" value="6. Nhấn đăng ký" style="html=1;verticalAlign=bottom;endArrow=block;curved=0;rounded=0;" edge="1" parent="1">
          <mxGeometry width="80" relative="1" as="geometry">
            <mxPoint x="-70" y="320" as="sourcePoint" />
            <mxPoint x="125" y="320" as="targetPoint" />
          </mxGeometry>
        </mxCell>
        <mxCell id="CKC-zvaueP3wiEX_PYZd-40" value="7. Gửi thông tin đăng ký" style="html=1;verticalAlign=bottom;endArrow=block;curved=0;rounded=0;" edge="1" parent="1">
          <mxGeometry width="80" relative="1" as="geometry">
            <mxPoint x="125" y="339.64" as="sourcePoint" />
            <mxPoint x="285" y="339.52" as="targetPoint" />
          </mxGeometry>
        </mxCell>
        <mxCell id="CKC-zvaueP3wiEX_PYZd-41" value="9.1.1. Hiển thị thông báo lỗi" style="html=1;verticalAlign=bottom;endArrow=open;dashed=1;endSize=8;curved=0;rounded=0;" edge="1" parent="1">
          <mxGeometry relative="1" as="geometry">
            <mxPoint x="289.5" y="410" as="sourcePoint" />
            <mxPoint x="120" y="410" as="targetPoint" />
            <Array as="points">
              <mxPoint x="165" y="410" />
            </Array>
          </mxGeometry>
        </mxCell>
        <mxCell id="CKC-zvaueP3wiEX_PYZd-42" value="9.2. Đúng: truy vấn dữ liệu" style="html=1;verticalAlign=bottom;endArrow=block;curved=0;rounded=0;" edge="1" parent="1">
          <mxGeometry width="80" relative="1" as="geometry">
            <mxPoint x="510" y="410" as="sourcePoint" />
            <mxPoint x="700" y="410" as="targetPoint" />
          </mxGeometry>
        </mxCell>
        <mxCell id="CKC-zvaueP3wiEX_PYZd-43" value="10. Trả kết quả" style="html=1;verticalAlign=bottom;endArrow=open;dashed=1;endSize=8;curved=0;rounded=0;" edge="1" parent="1">
          <mxGeometry relative="1" as="geometry">
            <mxPoint x="690" y="440" as="sourcePoint" />
            <mxPoint x="499.38888888888914" y="440" as="targetPoint" />
            <Array as="points" />
          </mxGeometry>
        </mxCell>
        <mxCell id="CKC-zvaueP3wiEX_PYZd-44" value="11.1. Thất bại: Status code 400" style="html=1;verticalAlign=bottom;endArrow=open;dashed=1;endSize=8;curved=0;rounded=0;" edge="1" parent="1">
          <mxGeometry relative="1" as="geometry">
            <mxPoint x="504.75" y="490" as="sourcePoint" />
            <mxPoint x="289.38888888888914" y="490" as="targetPoint" />
            <Array as="points" />
          </mxGeometry>
        </mxCell>
        <mxCell id="CKC-zvaueP3wiEX_PYZd-45" value="11.2. Thành công: Status code 200" style="html=1;verticalAlign=bottom;endArrow=open;dashed=1;endSize=8;curved=0;rounded=0;" edge="1" parent="1">
          <mxGeometry relative="1" as="geometry">
            <mxPoint x="495.75" y="520" as="sourcePoint" />
            <mxPoint x="290" y="520" as="targetPoint" />
            <Array as="points" />
          </mxGeometry>
        </mxCell>
        <mxCell id="CKC-zvaueP3wiEX_PYZd-46" value="11.1.1. Hiển thị thông báo lỗi" style="html=1;verticalAlign=bottom;endArrow=open;dashed=1;endSize=8;curved=0;rounded=0;" edge="1" parent="1">
          <mxGeometry relative="1" as="geometry">
            <mxPoint x="280" y="500" as="sourcePoint" />
            <mxPoint x="120" y="500" as="targetPoint" />
            <Array as="points">
              <mxPoint x="155" y="500" />
            </Array>
          </mxGeometry>
        </mxCell>
        <mxCell id="CKC-zvaueP3wiEX_PYZd-53" value="12. Nhấn xác nhận trong mail" style="html=1;verticalAlign=bottom;endArrow=block;curved=0;rounded=0;" edge="1" parent="1">
          <mxGeometry width="80" relative="1" as="geometry">
            <mxPoint x="-80" y="590" as="sourcePoint" />
            <mxPoint x="115" y="590" as="targetPoint" />
          </mxGeometry>
        </mxCell>
        <mxCell id="CKC-zvaueP3wiEX_PYZd-56" value="13. Gửi thông tin token" style="html=1;verticalAlign=bottom;endArrow=block;curved=0;rounded=0;" edge="1" parent="1">
          <mxGeometry width="80" relative="1" as="geometry">
            <mxPoint x="125" y="610.12" as="sourcePoint" />
            <mxPoint x="285" y="610" as="targetPoint" />
          </mxGeometry>
        </mxCell>
        <mxCell id="CKC-zvaueP3wiEX_PYZd-57" value="14. POST: Gửi yêu cầu xác thực" style="html=1;verticalAlign=bottom;endArrow=block;curved=0;rounded=0;" edge="1" parent="1">
          <mxGeometry x="-0.0014" width="80" relative="1" as="geometry">
            <mxPoint x="290" y="630" as="sourcePoint" />
            <mxPoint x="495" y="630" as="targetPoint" />
            <mxPoint as="offset" />
          </mxGeometry>
        </mxCell>
        <mxCell id="CKC-zvaueP3wiEX_PYZd-60" value="15. Thực thi truy vấn dữ liệu" style="html=1;verticalAlign=bottom;endArrow=block;curved=0;rounded=0;" edge="1" parent="1" source="CKC-zvaueP3wiEX_PYZd-59">
          <mxGeometry width="80" relative="1" as="geometry">
            <mxPoint x="510" y="650" as="sourcePoint" />
            <mxPoint x="700" y="650" as="targetPoint" />
          </mxGeometry>
        </mxCell>
        <mxCell id="CKC-zvaueP3wiEX_PYZd-64" value="16. Trả kết quả" style="html=1;verticalAlign=bottom;endArrow=open;dashed=1;endSize=8;curved=0;rounded=0;" edge="1" parent="1">
          <mxGeometry relative="1" as="geometry">
            <mxPoint x="690.61" y="680" as="sourcePoint" />
            <mxPoint x="499.99888888888916" y="680" as="targetPoint" />
            <Array as="points" />
          </mxGeometry>
        </mxCell>
        <mxCell id="CKC-zvaueP3wiEX_PYZd-67" value="17.1. Thất bại: Status code 400" style="html=1;verticalAlign=bottom;endArrow=open;dashed=1;endSize=8;curved=0;rounded=0;" edge="1" parent="1">
          <mxGeometry relative="1" as="geometry">
            <mxPoint x="504.75" y="720" as="sourcePoint" />
            <mxPoint x="289.38888888888914" y="720" as="targetPoint" />
            <Array as="points" />
          </mxGeometry>
        </mxCell>
        <mxCell id="CKC-zvaueP3wiEX_PYZd-68" value="17.2. Thành công: Status code 200" style="html=1;verticalAlign=bottom;endArrow=open;dashed=1;endSize=8;curved=0;rounded=0;" edge="1" parent="1">
          <mxGeometry relative="1" as="geometry">
            <mxPoint x="495.75" y="750" as="sourcePoint" />
            <mxPoint x="290" y="750" as="targetPoint" />
            <Array as="points" />
          </mxGeometry>
        </mxCell>
        <mxCell id="CKC-zvaueP3wiEX_PYZd-71" value="17.1.1. Hiển thị thông báo lỗi" style="html=1;verticalAlign=bottom;endArrow=open;dashed=1;endSize=8;curved=0;rounded=0;" edge="1" parent="1">
          <mxGeometry relative="1" as="geometry">
            <mxPoint x="280" y="740" as="sourcePoint" />
            <mxPoint x="120" y="740" as="targetPoint" />
            <Array as="points">
              <mxPoint x="155" y="740" />
            </Array>
          </mxGeometry>
        </mxCell>
        <mxCell id="CKC-zvaueP3wiEX_PYZd-72" value="17.2.1. Hiển thị thông báo thành công, điều hướng đến trang đăng nhập" style="html=1;verticalAlign=bottom;endArrow=open;dashed=1;endSize=8;curved=0;rounded=0;" edge="1" parent="1" target="CKC-zvaueP3wiEX_PYZd-2">
          <mxGeometry x="0.0523" relative="1" as="geometry">
            <mxPoint x="289.5" y="790" as="sourcePoint" />
            <mxPoint x="119.38888888888914" y="790" as="targetPoint" />
            <Array as="points">
              <mxPoint x="147.5" y="790" />
            </Array>
            <mxPoint x="1" as="offset" />
          </mxGeometry>
        </mxCell>
      </root>
    </mxGraphModel>
  </diagram>
</mxfile>
